<svg width="92" height="92" viewBox="0 0 92 92" fill="none" xmlns="http://www.w3.org/2000/svg">
<rect width="92" height="92" rx="12" fill="#F9F9F9"/>
<path d="M47.7426 62.2182C45.7346 58.2643 43.3729 54.2573 38.7732 54.2573C37.8631 54.2469 36.9603 54.4214 36.1196 54.7703L34.5539 51.639C36.4557 50.0026 39.5339 48.72 43.3994 48.72C49.5471 48.72 52.7049 51.6832 55.217 55.4691C56.7031 52.2405 57.4107 47.8797 57.4107 42.4662C57.4107 28.968 53.1914 22.1215 43.3287 22.1215C33.5986 22.1215 29.4147 29.0564 29.4147 42.4662C29.4147 55.876 33.6163 62.749 43.3287 62.749C44.7569 62.7679 46.1806 62.5832 47.5568 62.2006L47.7426 62.2182ZM50.1486 66.9329C47.9849 67.5142 45.7548 67.8116 43.5144 67.8174C30.5734 67.8263 17.8978 57.4947 17.8978 42.4751C17.8978 27.3227 30.5734 17 43.5144 17C56.6677 17 69.2018 27.2608 69.2018 42.4751C69.2345 46.3026 68.3764 50.0854 66.6953 53.5242C65.0143 56.963 62.5564 59.9637 59.5159 62.289C61.285 65.0665 63.2841 66.9152 65.9466 66.9152C68.848 66.9152 70.0156 64.6684 70.219 62.9082H74.0049C74.226 65.2523 73.0496 74.9912 62.4792 74.9912C56.075 74.9912 52.6872 71.276 50.1486 66.924V66.9329Z" fill="#B92B27"/>
</svg>
